<svg xmlns="http://www.w3.org/2000/svg" viewBox="0 0 457.11 162.24"><defs><style>.cls-1{fill:#013;}.cls-2,.cls-4{fill:#001737;}.cls-2,.cls-3{fill-rule:evenodd;}.cls-3{fill:#631514;}</style></defs><title>Ativo 1</title><g id="Camada_2" data-name="Camada 2"><g id="Camada_1-2" data-name="Camada 1"><path class="cls-1" d="M87.34,148.48h6.42V150H87.34Z"/><path class="cls-1" d="M123.85,156.41h-2.07l-1.93-5.82h-6.23l-1.89,5.82h-2l5.93-17.93h2.26Zm-4.4-7.37-1.76-5.32c-.38-1.22-.69-2.35-.92-3.41h-.07c-.24,1.08-.57,2.21-.9,3.34L114,149Z"/><path class="cls-1" d="M132.84,156.41h-2V137.58h2Z"/><path class="cls-1" d="M157.68,143.56l-4.07,12.85h-1.74l-2-6.45a37.35,37.35,0,0,1-1.13-4.24h-.07a34,34,0,0,1-1.18,4.26l-2.14,6.43h-1.76l-3.79-12.85h2l1.79,6.73c.35,1.43.71,2.75,1,4.07h.07c.29-1.27.71-2.66,1.13-4.05l2.15-6.75h1.69l2,6.63c.44,1.51.82,2.87,1.13,4.17h.07c.23-1.27.58-2.61,1-4.14l1.88-6.66Z"/><path class="cls-1" d="M172.93,153.35a17.46,17.46,0,0,0,.19,3.06h-1.79l-.19-1.65h-.07a4.47,4.47,0,0,1-3.79,1.93,3.55,3.55,0,0,1-3.74-3.65c0-3.08,2.68-4.75,7.44-4.73,0-1.08,0-3.53-2.92-3.53a5.56,5.56,0,0,0-3.13.92l-.47-1.34a7.3,7.3,0,0,1,3.9-1.08c3.63,0,4.57,2.56,4.57,5.1Zm-1.93-3.6c-2.42,0-5.46.35-5.46,3.06a2.13,2.13,0,0,0,2.21,2.37,3.14,3.14,0,0,0,3.25-3Z"/><path class="cls-1" d="M190.86,143.58l-3.42,9.08c-1.52,4.17-2.61,6.57-4.21,8.07a6.48,6.48,0,0,1-2.61,1.51l-.54-1.65a7.3,7.3,0,0,0,4.14-4.61,1.77,1.77,0,0,0-.14-.54l-4.54-11.86h2.14l2.8,7.79c.33.9.61,1.91.82,2.68h.07c.22-.77.52-1.74.83-2.73l2.59-7.74Z"/><path class="cls-1" d="M203.51,145.54a4.54,4.54,0,0,0-2.49-.76,1.93,1.93,0,0,0-2.16,1.91c0,1.1.72,1.62,2.37,2.33,2.07.84,3.27,1.93,3.27,3.86,0,2.28-1.74,3.78-4.54,3.78a6.75,6.75,0,0,1-3.36-.87l.54-1.5a6.09,6.09,0,0,0,2.89.87c1.72,0,2.57-.92,2.57-2.07s-.69-1.86-2.38-2.54c-2.16-.87-3.27-2.07-3.27-3.63,0-2,1.6-3.64,4.19-3.64a5.71,5.71,0,0,1,2.94.77Z"/><path class="cls-1" d="M238.43,143.56l-4.07,12.85h-1.74l-2-6.45a39.57,39.57,0,0,1-1.13-4.24h-.07a32.39,32.39,0,0,1-1.17,4.26l-2.14,6.43h-1.77l-3.79-12.85h2l1.79,6.73c.35,1.43.7,2.75,1,4.07h.07c.28-1.27.71-2.66,1.13-4.05l2.14-6.75h1.7l2,6.63c.45,1.51.83,2.87,1.13,4.17h.07c.24-1.27.59-2.61,1-4.14l1.89-6.66Z"/><path class="cls-1" d="M246.24,141.32A1.26,1.26,0,0,1,245,140a1.28,1.28,0,0,1,1.29-1.32,1.33,1.33,0,0,1,0,2.66Zm1,15.09h-1.95V143.58h1.95Z"/><path class="cls-1" d="M256.12,141.25l1.93-.66v3h3.32v1.53h-3.32v7.41c0,1.63.49,2.52,1.74,2.52a3.77,3.77,0,0,0,1.32-.19l.12,1.51a5,5,0,0,1-1.91.3c-3.11,0-3.2-2.82-3.2-4.18v-7.37h-2v-1.53h2Z"/><path class="cls-1" d="M278.69,156.41h-2v-7.58c0-2.1-.75-3.91-3-3.91a3.49,3.49,0,0,0-3.39,3.6v7.89h-1.95V137.58h1.95v8h.05a4.7,4.7,0,0,1,4-2.28c1.58,0,4.29,1,4.29,5.31Z"/><path class="cls-1" d="M306.61,143.58l-3.41,9.08c-1.53,4.17-2.61,6.57-4.21,8.07a6.48,6.48,0,0,1-2.61,1.51l-.55-1.65A7.32,7.32,0,0,0,300,156a1.58,1.58,0,0,0-.15-.54l-4.54-11.86h2.15l2.8,7.79c.32.9.61,1.91.82,2.68h.07c.21-.77.52-1.74.82-2.73l2.59-7.74Z"/><path class="cls-1" d="M324.16,149.89c0,4.77-3.15,6.8-6,6.8-3.29,0-5.83-2.47-5.83-6.61,0-4.38,2.73-6.8,6-6.8C321.83,143.28,324.16,146,324.16,149.89Zm-5.9-5.08c-2.78,0-3.93,2.73-3.93,5.2,0,2.84,1.57,5.15,3.88,5.15s4-2.31,4-5.2C322.16,147.68,321.06,144.81,318.26,144.81Z"/><path class="cls-1" d="M341.67,153c0,1.32.07,2.43.11,3.42H340l-.09-2h-.08a4.63,4.63,0,0,1-4.09,2.31c-1.93,0-4.21-1.11-4.21-5.53v-7.58h1.95v7.23c0,2.49.73,4.23,2.87,4.23a3.39,3.39,0,0,0,3.34-3.48v-8h2Z"/><path class="cls-1" d="M358.86,148.48h6.43V150h-6.43Z"/><polygon class="cls-2" points="50.12 28.71 80.14 28.94 80.14 100.73 114.37 101.35 114.55 29.05 144.43 29.04 144.42 0.14 50.16 0.11 50.12 28.71"/><path class="cls-2" d="M446.4,54.22V1.32h8v52.9Zm-43.87,0V1.32h8V22.48h23.93V1.32h8v52.9h-8V33.06H410.51V54.22Zm-35.89,0A6.87,6.87,0,0,1,361,51.16a12.27,12.27,0,0,1-2.31-7.52V38.35h8a6.49,6.49,0,0,0,1.11,3.81,3.59,3.59,0,0,0,2.87,1.48h16a3.49,3.49,0,0,0,2.8-1.48,6.2,6.2,0,0,0,1.19-3.81,6,6,0,0,0-1.19-3.72,3.44,3.44,0,0,0-2.8-1.57H366.64A6.87,6.87,0,0,1,361,30a12.27,12.27,0,0,1-2.31-7.52V11.9A11.93,11.93,0,0,1,361,4.46a6.91,6.91,0,0,1,5.67-3.14h23.93a6.75,6.75,0,0,1,5.6,3.14,11.92,11.92,0,0,1,2.37,7.44v5.29h-8a6,6,0,0,0-1.19-3.73,3.45,3.45,0,0,0-2.8-1.56h-16a3.54,3.54,0,0,0-2.87,1.56,6.32,6.32,0,0,0-1.11,3.73A6.49,6.49,0,0,0,367.75,21a3.62,3.62,0,0,0,2.87,1.48h19.95a6.74,6.74,0,0,1,5.6,3.15,11.89,11.89,0,0,1,2.37,7.43V43.64a11.82,11.82,0,0,1-2.37,7.52,6.93,6.93,0,0,1-5.6,3.06Zm-47.87,0,20-52.9,19.94,52.9h-8l-2-5.29H328.75l-2,5.29ZM344.7,38.35l-6-15.87-6,15.87ZM278.89,54.22V1.32h8V22.48H310.8V1.32h8v52.9h-8V33.06H286.87V54.22Zm-39.88,0L259,1.32l19.94,52.9h-8l-2-5.29H249l-2,5.29Zm25.93-15.87-6-15.87-6,15.87ZM203.11,54.22V1.32h8V22.48L227,1.32h12L219.07,27.77,239,54.22H227L211.09,33.06V54.22Z"/><path class="cls-3" d="M448.31,88.38l-5-13.72a14.62,14.62,0,0,1-.52-2.13h-.1a12,12,0,0,1-.52,2.16l-5,13.69Zm8.8,12.41h-4.18l-3.39-9H435.89l-3.22,9h-4.18l12.33-32.16h3.91Zm-34-32.16v3.21H420V97.57h3.13v3.22h-10V97.57h3.12V71.84h-3.12V68.63ZM388.71,72V83.7h5.12a8,8,0,0,0,2.62-.43,6.2,6.2,0,0,0,2.07-1.22,5.78,5.78,0,0,0,1.37-2,6.58,6.58,0,0,0,.49-2.6,5.07,5.07,0,0,0-1.67-4A7.19,7.19,0,0,0,393.87,72ZM408,100.79h-4.5l-5.39-9a17.4,17.4,0,0,0-1.43-2.15,7.77,7.77,0,0,0-1.42-1.44,4.55,4.55,0,0,0-1.57-.82,6.17,6.17,0,0,0-1.89-.26h-3.1v13.69H385V68.63h9.6a13.83,13.83,0,0,1,3.9.52,8.81,8.81,0,0,1,3.09,1.6,7.42,7.42,0,0,1,2,2.69,8.78,8.78,0,0,1,.74,3.75,8.93,8.93,0,0,1-.5,3.08,8,8,0,0,1-1.44,2.5,9.14,9.14,0,0,1-2.24,1.88,11.68,11.68,0,0,1-3,1.19v.09a6.8,6.8,0,0,1,1.39.82,8.31,8.31,0,0,1,1.14,1.09,12.79,12.79,0,0,1,1.06,1.42c.35.54.74,1.15,1.18,1.86ZM359.77,71.47a10.33,10.33,0,0,0-8.23,3.66,14.19,14.19,0,0,0-3.17,9.61,14.29,14.29,0,0,0,3.09,9.58,10,10,0,0,0,8,3.62,10.59,10.59,0,0,0,8.35-3.45q3-3.46,3-9.68,0-6.37-3-9.86A10.13,10.13,0,0,0,359.77,71.47Zm-.28,29.87a14.09,14.09,0,0,1-10.95-4.51q-4.12-4.52-4.12-11.74,0-7.77,4.2-12.39T360,68.07a13.78,13.78,0,0,1,10.73,4.49q4.08,4.5,4.08,11.74,0,7.88-4.18,12.46A14.37,14.37,0,0,1,359.49,101.34ZM316.83,99.5V95a8.31,8.31,0,0,0,1.83,1.21,13.82,13.82,0,0,0,2.24.91,18,18,0,0,0,2.36.58,13.71,13.71,0,0,0,2.2.2,8.57,8.57,0,0,0,5.18-1.29,4.37,4.37,0,0,0,1.72-3.7,4.26,4.26,0,0,0-.58-2.27,6.29,6.29,0,0,0-1.57-1.76,15.65,15.65,0,0,0-2.39-1.53q-1.38-.73-3-1.53c-1.12-.58-2.16-1.15-3.13-1.74a13,13,0,0,1-2.54-1.93,8.21,8.21,0,0,1-1.69-2.38,7.49,7.49,0,0,1-.61-3.14,7.35,7.35,0,0,1,1-3.82,8.11,8.11,0,0,1,2.53-2.68A11.28,11.28,0,0,1,324,68.59a16.11,16.11,0,0,1,4.1-.52c3.17,0,5.48.39,6.93,1.15v4.23a12.55,12.55,0,0,0-7.32-2,12.25,12.25,0,0,0-2.46.26,7,7,0,0,0-2.2.85,4.92,4.92,0,0,0-1.57,1.51,4,4,0,0,0-.6,2.25,4.58,4.58,0,0,0,.46,2.13,5.11,5.11,0,0,0,1.35,1.63,13.29,13.29,0,0,0,2.18,1.44c.86.46,1.86,1,3,1.53s2.24,1.16,3.27,1.8A15.27,15.27,0,0,1,333.78,87a9.5,9.5,0,0,1,1.85,2.53,7.27,7.27,0,0,1,.68,3.2,8.14,8.14,0,0,1-.93,4,7.76,7.76,0,0,1-2.51,2.68,11.2,11.2,0,0,1-3.64,1.49,19.8,19.8,0,0,1-4.35.46,18.34,18.34,0,0,1-1.89-.12c-.75-.09-1.5-.2-2.29-.36a20.18,20.18,0,0,1-2.2-.59A6.9,6.9,0,0,1,316.83,99.5Zm-28.19,0V95a8.31,8.31,0,0,0,1.83,1.21,14.19,14.19,0,0,0,2.24.91,18.45,18.45,0,0,0,2.36.58,13.71,13.71,0,0,0,2.2.2,8.61,8.61,0,0,0,5.19-1.29,4.84,4.84,0,0,0,1.14-6A6.49,6.49,0,0,0,302,88.92a15.17,15.17,0,0,0-2.39-1.53c-.92-.49-1.91-1-3-1.53s-2.17-1.15-3.14-1.74A13,13,0,0,1,291,82.19a8.21,8.21,0,0,1-1.69-2.38,7.49,7.49,0,0,1-.61-3.14,7.35,7.35,0,0,1,1-3.82,8.14,8.14,0,0,1,2.54-2.68,11.23,11.23,0,0,1,3.57-1.58,16.17,16.17,0,0,1,4.1-.52c3.17,0,5.48.39,6.93,1.15v4.23a12.52,12.52,0,0,0-7.31-2,12.27,12.27,0,0,0-2.47.26,7,7,0,0,0-2.2.85,4.92,4.92,0,0,0-1.57,1.51,4,4,0,0,0-.6,2.25,4.58,4.58,0,0,0,.46,2.13,5.25,5.25,0,0,0,1.35,1.63,13,13,0,0,0,2.19,1.44c.85.46,1.85,1,3,1.53s2.24,1.16,3.27,1.8A15.27,15.27,0,0,1,305.59,87a9.5,9.5,0,0,1,1.85,2.53,7.27,7.27,0,0,1,.68,3.2,8.14,8.14,0,0,1-.92,4,7.79,7.79,0,0,1-2.52,2.68,11.2,11.2,0,0,1-3.64,1.49,19.8,19.8,0,0,1-4.35.46,18.16,18.16,0,0,1-1.88-.12c-.75-.09-1.51-.2-2.29-.36a19.77,19.77,0,0,1-2.21-.59A6.9,6.9,0,0,1,288.64,99.5Zm-8.45,1.29H263.14V68.63h16.31V72H266.91v10.7h11.62v3.4H266.91V97.39h13.28ZM233.44,99.5V95a8.08,8.08,0,0,0,1.83,1.21,13.71,13.71,0,0,0,2.23.91,18.19,18.19,0,0,0,2.37.58,13.61,13.61,0,0,0,2.2.2,8.57,8.57,0,0,0,5.18-1.29A4.37,4.37,0,0,0,249,93a4.26,4.26,0,0,0-.58-2.27,6.29,6.29,0,0,0-1.57-1.76,16.16,16.16,0,0,0-2.39-1.53q-1.38-.73-3-1.53c-1.12-.58-2.17-1.15-3.14-1.74a13.27,13.27,0,0,1-2.53-1.93,8.21,8.21,0,0,1-1.69-2.38,7.49,7.49,0,0,1-.62-3.14,7.26,7.26,0,0,1,1-3.82A8,8,0,0,1,237,70.17a11.28,11.28,0,0,1,3.58-1.58,16.11,16.11,0,0,1,4.1-.52c3.17,0,5.48.39,6.93,1.15v4.23a12.55,12.55,0,0,0-7.32-2,12.1,12.1,0,0,0-2.46.26,6.91,6.91,0,0,0-2.2.85A4.92,4.92,0,0,0,238,74.09a3.94,3.94,0,0,0-.61,2.25,4.71,4.71,0,0,0,.46,2.13,5.28,5.28,0,0,0,1.36,1.63,12.87,12.87,0,0,0,2.18,1.44c.86.46,1.86,1,3,1.53s2.25,1.16,3.27,1.8A14.58,14.58,0,0,1,250.38,87a9.54,9.54,0,0,1,1.86,2.53,7.27,7.27,0,0,1,.68,3.2,8.14,8.14,0,0,1-.93,4,7.76,7.76,0,0,1-2.51,2.68,11.29,11.29,0,0,1-3.64,1.49,19.8,19.8,0,0,1-4.35.46,18.34,18.34,0,0,1-1.89-.12c-.75-.09-1.51-.2-2.29-.36a19.59,19.59,0,0,1-2.2-.59A6.9,6.9,0,0,1,233.44,99.5Zm-28.19,0V95a8.31,8.31,0,0,0,1.83,1.21,13.46,13.46,0,0,0,2.24.91,18,18,0,0,0,2.36.58,13.71,13.71,0,0,0,2.2.2,8.57,8.57,0,0,0,5.18-1.29,4.37,4.37,0,0,0,1.72-3.7,4.26,4.26,0,0,0-.58-2.27,6.29,6.29,0,0,0-1.57-1.76,15.65,15.65,0,0,0-2.39-1.53q-1.38-.73-3-1.53c-1.12-.58-2.16-1.15-3.14-1.74a13.27,13.27,0,0,1-2.53-1.93,8.21,8.21,0,0,1-1.69-2.38,7.49,7.49,0,0,1-.61-3.14,7.35,7.35,0,0,1,1-3.82,8.11,8.11,0,0,1,2.53-2.68,11.28,11.28,0,0,1,3.58-1.58,16.11,16.11,0,0,1,4.1-.52c3.17,0,5.48.39,6.93,1.15v4.23a12.55,12.55,0,0,0-7.32-2,12.17,12.17,0,0,0-2.46.26,6.91,6.91,0,0,0-2.2.85,4.92,4.92,0,0,0-1.57,1.51,4,4,0,0,0-.6,2.25,4.58,4.58,0,0,0,.46,2.13,5.11,5.11,0,0,0,1.35,1.63,13.29,13.29,0,0,0,2.18,1.44c.86.46,1.86,1,3,1.53s2.25,1.16,3.27,1.8A15,15,0,0,1,222.2,87a9.5,9.5,0,0,1,1.85,2.53,7.27,7.27,0,0,1,.68,3.2,8.14,8.14,0,0,1-.93,4,7.76,7.76,0,0,1-2.51,2.68,11.2,11.2,0,0,1-3.64,1.49,19.8,19.8,0,0,1-4.35.46,18.34,18.34,0,0,1-1.89-.12c-.75-.09-1.5-.2-2.29-.36a19.59,19.59,0,0,1-2.2-.59A6.9,6.9,0,0,1,205.25,99.5Z"/><path class="cls-3" d="M10.66,31.87A10.5,10.5,0,0,0,15.88,31c3.3-1.35,12.76-2.54,16.35-3,1.5-.2,4.63-.6,5.83.07s.18,4.21-.05,5.32c-.41,2-1.82,9.24-3,10-1.93.31-4.16-.87-5.89-1.25.3,2.19,2.73,4.1,3.87,5.14.87.8,4.09,3.7,5.86,2.13s3.78-10.16,4.81-13.36c.38-1.16.59-2.28,1-3.46,1.09-3.42,2.58-4.19-.56-6A16.67,16.67,0,0,0,41,25.14C36.81,23.86,19.11,27,12.85,28c-1.13.17-2.85.7-3.69.27-1.47-.75-2.35.35-3,1a2.37,2.37,0,0,0-.24,3.25c1.27,2.14,1.68,4.23,2.58,6.51C10,42.87,8,41.59,11.13,45.5a7.72,7.72,0,0,0,2.31,2.24c3.86,1.85-.12-8.05-.52-9.23Z"/><path class="cls-3" d="M18.78.25c.16.55.88.89,1.25,1.3a9.25,9.25,0,0,1,1.08,1.51c.43.84.73,4.29-.26,4.71s-8.64,1.82-9.38,1.86c-1.39.07-2.55-.24-3.77-.23.06,1,2.29,3.57,3.55,4,2.17.82,11.22-3.79,18.54-3.77,2.43,0,5.13.09,7.53,0,1.35,0,2.37.14,2.87-.87.56-1.17-.55-1.89-1.27-2.27-4.66-2.44-7.74-.25-12.62.18.47-3,1.88-4.25-1.11-5.41C23.84.78,20-.55,18.78.25"/><path class="cls-3" d="M13.72,15.21c-.14.74.67,2.5.95,3.11,1.62,3.45.54,3.59,2.79,5.79.65.63,1.41,1.58,2.8,1.37a6.11,6.11,0,0,0,.62-1.92c-.19-1,0,.62-.29-.33,1-.2,2-.58,3.15-.72,3.73-.47,8.32.4,7.63-1.93-.2-.67-.57-.57-.77-1.14.06-.48,1.31-1.75,1.63-2.21.15-.2.21-.41.34-.58s1.49-.77.63-2.06A6.36,6.36,0,0,0,30.75,13a4.88,4.88,0,0,0-3.41,0c-2.22.45-4.48,1-6.65,1.4-1.11.2-4.06,1-5,.86a3.53,3.53,0,0,0-2,0m5.08,2.08c.6.25,4.22-2,7.61-1.73a6.11,6.11,0,0,1-.66,2.06c-.51,1-.37.75-1.61,1a42.8,42.8,0,0,1-4.36.95A6.49,6.49,0,0,1,18.8,17.29Z"/><path class="cls-3" d="M15.87,32.27c0,.86,1.12,2.52,1.56,4.32a14.54,14.54,0,0,0,.3,1.79c.43,1.21,2.69,3.78,4.14,3.73a1.84,1.84,0,0,0,.61-1,2.43,2.43,0,0,0,.1-.61c0-.35,0-.22,0-.28l-.13-.36c1.27.29.68-.73,4.13,0a2.51,2.51,0,0,0,1.94-.3,6.09,6.09,0,0,0,1.16-1.31c1-1.69.51-1,.64-1.63s3.62-2.91,1-4.74c-3.56-2.47-2.91-1.56-7.09-.52-1.2.3-4.95,1.33-6.09,1.11a5,5,0,0,0-2.2-.19M20.8,34.5a19.4,19.4,0,0,1,4.92-1.09A8.7,8.7,0,0,1,24.65,36a7.25,7.25,0,0,1-1.54.3,10.9,10.9,0,0,1-1.43.46Z"/><path class="cls-3" d="M30.56,52.49c-.22.54.56.71.41,1.69-.09.62-.79,1-1.18,1.31-1,.79-1.76,1.38-2.8,2.14a32.26,32.26,0,0,1-5.79,3.29c-.56.29.2-.13-.17.1a.91.91,0,0,0-.24.18c1.28,1.12,4.68.42,5.74.31a11.92,11.92,0,0,1-.91,2.28c-.52,1.18-.54,1.15-1.71,1.54a43.33,43.33,0,0,1-5.19,1.33,2.7,2.7,0,0,0,1.8,1.87c1.22.48,1.81.22,3.09,0-.4,1.64-2.72,5.48-3.6,6.88a17.63,17.63,0,0,1-2.23,3c-.43.45-.72.83-1.24,1.36s-1.07.69-1.38,1.36c6.48,0,7.09-4.14,8.78-5.3.56.68,1.49,4,3.38,4.61.92.32.85-.1.85-.1.54-.49,0-.7,0-1.35,1.32-1.68,6.09-.23,7.82-1.47a1.41,1.41,0,0,0-.65-1.6c-.5-.45-.33.18-.37-.57.07-.23.45-.14.71-.47s.17-.53.35-.79c1.65,1.73,2,5.66,5.18,6.61,2.06.61,8.85,1.4,10-.54a23.83,23.83,0,0,0-2.47-1.46A51.27,51.27,0,0,1,38,70a33.85,33.85,0,0,1-3.15-3.74c-.45-.55.06-.13-.52-.28l2.12-.39c.72-.12,1.44-.21,2.18-.31,4.19-.57.14-3.85-3.31-3.17-1.11.22-3.76,1.18-4,.72-.06-.08,0-.36.24-.61l.15-.12A1.25,1.25,0,0,0,31.51,60l-.71-.34a1.62,1.62,0,0,1-.26-.15,13.85,13.85,0,0,0,3.51-1.44c.88-.42,3-1.27,3.14-2.08.32-1.59-5.21-4.06-6.63-3.5M27,70c1-.87.5-.66,1.54-2.26.5-.77,2-1,3-1.08a10.73,10.73,0,0,1,1.76,2.68c-1,.16-2.14.47-3.23.68-1.55.29-2.27.66-3.31.28Zm1.82,2.57a5.38,5.38,0,0,1,2.62-.34,2.79,2.79,0,0,1-.63,1.93c-.24.4,0,.22-.38.39a21,21,0,0,1-2.8.57,8.25,8.25,0,0,0-.43-1c-.49-1-.36,0-.57-.68Z"/><path class="cls-3" d="M13.9,62.08a43.54,43.54,0,0,0,.67-4.78c0-2.11-5.56-4.09-7-3.42,0,.58,1.5,2.71,1.7,6.41.15,2.67,0,5.49.11,8.18a38.54,38.54,0,0,1-6.62,2.81C1.77,71.44,1,71,0,71c.16,1,2.06,3.3,2.86,3.87C4.45,76,6,73.9,7.37,73.72,6,77.05,4.06,82.56,1.42,85.29c-.47.48-1,.77-1.12,1.36,2.34.82,5-.86,6-2,1.26-1.37,2-3.35,3.2-5a87.82,87.82,0,0,1-.32,9.7c-.4,3.33-1.31,3.47,1.48,7.82,2.36,3.7,3.24.24,3.18-.3-.37-1,.42.71-.18-.26l-.06-.09-.31-3.17c0-.72.08-.77.35-.9-.19-.38-.11.08-.19-.47v-.17s0-.06,0-.08a.24.24,0,0,0,0-.08.59.59,0,0,1,0-.08l-.09-.18c-.11-.3-.09-.09-.1-.48l.22-1.69c.13-1.92-.26-5.56-.24-8.06,0-.71,0-1.39,0-2.09,0-1.34-.46-1.1-.28-1.64.72-.13,1.79,1.34,2.48,1.72a1.28,1.28,0,0,0,1.85-1c0-.46-.16-.33,0-.81s.14.25.14-.47l-.42-1.12c-1.11-1.85-2.44-1.5-3.93-2.43-.2-2.06-.25-.89-.34-1.52l2.32-1.24a5.76,5.76,0,0,0,2.19-1.31C18.16,68,16,66.43,13.49,67.23a35.08,35.08,0,0,1,.41-5.15"/><path class="cls-3" d="M23.33,85.67c2.19.14,5.06-1.15,7.08-1.77,1.61-.49,6.44-1.26,7.89-.46.19,1.6-1.15,11.86-3.06,12.19-1.54.27-3.05-.6-4.42-.78-.14,2.32,4.46,5.54,5.89,6.17s2.23.72,2.84-.45c1-2,2.06-6.87,2.71-9.49l.32-1.67c.09-1,.42-.5.22-1.12,0,0,0-.08,0-.11L42.64,88a5.8,5.8,0,0,1,.45-.39c-.49-.9-.05-.86.07-1.82.15-1.22.36-.8.86-1.49,1-1.38-.35-2.21-1.27-2.64-4.25-2-3.58-1.25-7.44-.85-3.12.32-8.62,1.25-11.83,1.92-2.13.46-.53-1-3.25.12-2.24,1-1.65,2.11-.79,4.7,1.43,4.32.16,5.67,2.59,9,1.27,1.73,2.76,2.09,2.7.55,0-.75.05,0-.18-.48-.69-1.43.26-1.33,0-2.78-.3-1.81-1.2-6.72-1.25-8.1"/><path class="cls-3" d="M25.17,85.93c-.2,1.21,2.18,8.55,3.65,7.9.51-.44.42-1,.81-1.22a7,7,0,0,1,1.83-.27,15.12,15.12,0,0,0,3.63-.62,4.11,4.11,0,0,0-.18-1.13c-.5-1-.1.52-.61-.43.29-.52.29,0,.73-.61,1.17-1.56,2.48-3.11.54-4-3.34-1.55-6.76,1-8.38.86-.65,0-.82-.55-2-.47M29,88.08a6.15,6.15,0,0,1,2.54-.86c0,2.24-.09,2.57-2.23,2.52Z"/><path class="cls-3" d="M164.92,63.88,144.24,55.4l21.39-22.77ZM99.47,101.09l-46,0L157.08.11l38.37.76-.16,100.33-33.52-.44.17-13.13L128.85,74Z"/><rect class="cls-4" x="50.12" y="0.14" width="94.3" height="28.57"/></g></g></svg>